# xmcd
#
# Track frame offsets: 
#        150
#        13475
#        21746
#        33905
#        45505
#        58184
#        65654
#        76809
#        88072
#        101797
#        121499
#        130870
#        145722
#        157037
#
# Disc length: 2256 seconds
#
# Revision: 2
# Processed by: cddbd v1.5.2PL0 Copyright (c) Steve Scherf et al.
# Submitted via: ExactAudioCopy v0.99pb5
#
DISCID=c708ce0e
DTITLE=Krzysztof Myszkowski - Krzysztof Myszkowski
DYEAR=1995
DGENRE=Piosenka Poetycka
TTITLE0=Wiersz Ksiezycowy
TTITLE1=Musisz Mi Pomoc
TTITLE2=Krzywda
TTITLE3=Twoj Portret Wiosenny
TTITLE4=Jezyk Masz Trudny
TTITLE5=Sniez Sie W Duszy Mojej Sniez
TTITLE6=Ludzie
TTITLE7=Kwiaciarka Z Plant
TTITLE8=Cos Wisi W Powietrzu
TTITLE9=Dwa Kroki Do Jesieni
TTITLE10=Rozmowa Z Moim Psem
TTITLE11=Zytniowka
TTITLE12=Ludziom Nie Zawsze Mozna Wierzyc
TTITLE13=Zbieg Okolicznosci Lagodzacych
EXTD=
EXTT0=
EXTT1=
EXTT2=
EXTT3=
EXTT4=
EXTT5=
EXTT6=
EXTT7=
EXTT8=
EXTT9=
EXTT10=
EXTT11=
EXTT12=
EXTT13=
PLAYORDER=
